<?xml version="1.0" encoding="utf-8"?>
<svg xmlns="http://www.w3.org/2000/svg" id="Logo" viewBox="0 0 737.27 236.55">
  <defs>
    <style>
      .cls-1 {
        fill: #46217e;
      }
    </style>
  </defs>
  <g id="Wortmarke">
    <path class="cls-1" d="M428.74,105.64c-.61.61-1.34.91-2.21.91h-26.46c-.87,0-1.3.43-1.3,1.3v58.13c0,6.57,1.43,11.33,4.28,14.27,2.85,2.94,7.39,4.41,13.62,4.41h7.78c.86,0,1.6.3,2.21.91.6.61.91,1.34.91,2.21v19.46c0,1.91-1.04,3.03-3.11,3.37l-13.49.26c-13.66,0-23.87-2.33-30.61-7-6.75-4.67-10.21-13.49-10.38-26.46v-69.54c0-.86-.43-1.3-1.3-1.3h-26.46c-.87,0-1.6-.3-2.21-.91-.61-.6-.91-1.34-.91-2.21v-22.56c0-.86.3-1.6.91-2.21.6-.6,1.34-.91,2.21-.91h26.46c.86,0,1.3-.43,1.3-1.3v-30.35c0-.86.3-1.6.91-2.21.6-.6,1.34-.91,2.21-.91h22.57c.86,0,1.6.3,2.21.91.6.61.91,1.34.91,2.21v30.35c0,.87.43,1.3,1.3,1.3h26.46c.86,0,1.6.3,2.21.91.6.61.91,1.34.91,2.21v22.56c0,.87-.3,1.6-.91,2.21Z"/>
    <path class="cls-1" d="M562.55,143.66l-.26,8.04c0,2.08-1.04,3.11-3.11,3.11h-81.2c-.87,0-1.3.43-1.3,1.3.52,5.71,1.3,9.6,2.33,11.67,4.15,12.45,14.27,18.77,30.35,18.94,11.76,0,21.1-4.84,28.02-14.53.69-1.04,1.56-1.56,2.59-1.56.69,0,1.3.26,1.82.78l16.08,13.23c1.56,1.21,1.82,2.59.78,4.15-5.36,7.61-12.5,13.49-21.4,17.64-8.91,4.15-18.81,6.23-29.71,6.23-13.49,0-24.95-3.02-34.37-9.08-9.43-6.05-16.3-14.53-20.62-25.42-3.98-9.34-5.97-22.31-5.97-38.92,0-10.03,1.04-18.16,3.11-24.39,3.46-12.1,9.99-21.66,19.59-28.67,9.6-7,21.14-10.51,34.63-10.51,34.07,0,53.27,17.82,57.59,53.44.69,4.33,1.04,9.17,1.04,14.53ZM487.11,106.44c-4.24,3.2-7.22,7.65-8.95,13.36-1.04,2.94-1.73,6.75-2.08,11.42-.35.87,0,1.3,1.04,1.3h52.66c.86,0,1.3-.43,1.3-1.3-.35-4.32-.87-7.61-1.56-9.86-1.56-6.23-4.63-11.07-9.21-14.53-4.58-3.46-10.34-5.19-17.25-5.19-6.4,0-11.72,1.6-15.96,4.8Z"/>
    <path class="cls-1" d="M586.87,209.43c-.61-.6-.91-1.34-.91-2.21V46.12c0-.86.3-1.6.91-2.21.6-.6,1.34-.91,2.21-.91h23.87c.86,0,1.6.3,2.21.91.6.61.91,1.34.91,2.21v161.11c0,.87-.3,1.6-.91,2.21-.61.61-1.34.91-2.21.91h-23.87c-.87,0-1.6-.3-2.21-.91Z"/>
    <path class="cls-1" d="M644.63,209.43c-.61-.6-.91-1.34-.91-2.21V46.12c0-.86.3-1.6.91-2.21.6-.6,1.34-.91,2.21-.91h23.87c.86,0,1.6.3,2.21.91.6.61.91,1.34.91,2.21v161.11c0,.87-.3,1.6-.91,2.21-.61.61-1.34.91-2.21.91h-23.87c-.87,0-1.6-.3-2.21-.91Z"/>
    <path class="cls-1" d="M705.62,73.68c-3.46-3.46-5.19-7.87-5.19-13.23s1.73-9.77,5.19-13.23c3.46-3.46,7.87-5.19,13.23-5.19s9.77,1.73,13.23,5.19c3.46,3.46,5.19,7.87,5.19,13.23s-1.73,9.77-5.19,13.23c-3.46,3.46-7.87,5.19-13.23,5.19s-9.77-1.73-13.23-5.19ZM704.19,209.43c-.61-.6-.91-1.34-.91-2.21v-101.94c0-.86.3-1.6.91-2.21.6-.6,1.34-.91,2.21-.91h23.87c.86,0,1.6.3,2.21.91.6.61.91,1.34.91,2.21v101.94c0,.87-.3,1.6-.91,2.21s-1.34.91-2.21.91h-23.87c-.87,0-1.6-.3-2.21-.91Z"/>
  </g>
  <g id="Bildmarke">
    <path class="cls-1" d="M212.75,43c11.43,0,20.74,9.3,20.74,20.74s-9.3,20.74-20.74,20.74H63.74c-11.43,0-20.74-9.3-20.74-20.74s9.3-20.74,20.74-20.74h149.01M212.75,0H63.74C28.54,0,0,28.54,0,63.74h0c0,35.2,28.54,63.74,63.74,63.74h149.01c35.2,0,63.74-28.54,63.74-63.74h0C276.49,28.54,247.95,0,212.75,0h0Z"/>
    <path class="cls-1" d="M249.43,144.45h-58.64c-11.96,0-21.66,9.7-21.66,21.66s9.7,21.66,21.66,21.66h58.64c11.96,0,21.66-9.7,21.66-21.66s-9.7-21.66-21.66-21.66h0Z"/>
    <path class="cls-1" d="M249.92,231.36c-3.46-3.46-5.19-7.87-5.19-13.23s1.73-9.77,5.19-13.23c3.46-3.46,7.87-5.19,13.23-5.19s9.77,1.73,13.23,5.19c3.46,3.46,5.19,7.87,5.19,13.23s-1.73,9.77-5.19,13.23c-3.46,3.46-7.87,5.19-13.23,5.19s-9.77-1.73-13.23-5.19Z"/>
  </g>
</svg>