<svg width="32" height="32" viewBox="0 0 32 32" fill="none" xmlns="http://www.w3.org/2000/svg">
    <path
        d="M22.6452 8.97059C23.7006 8.97059 24.5603 9.82935 24.5603 10.8857C24.5603 11.9421 23.7016 12.8008 22.6452 12.8008H8.88571C7.83027 12.8008 6.97059 11.9421 6.97059 10.8857C6.97059 9.82935 7.82935 8.97059 8.88571 8.97059H22.6452ZM22.6452 5H8.88571C5.63537 5 3 7.63537 3 10.8857C3 14.1361 5.63537 16.7714 8.88571 16.7714H22.6452C25.8955 16.7714 28.5309 14.1361 28.5309 10.8857C28.5309 7.63537 25.8955 5 22.6452 5Z"
        fill="#46217E" />
    <path
        d="M26.0322 18.3384H20.6174C19.5131 18.3384 18.6174 19.2341 18.6174 20.3385C18.6174 21.4428 19.5131 22.3385 20.6174 22.3385H26.0322C27.1366 22.3385 28.0323 21.4428 28.0323 20.3385C28.0323 19.2341 27.1366 18.3384 26.0322 18.3384Z"
        fill="#46217E" />
    <path
        d="M26.0774 26.3636C25.758 26.0441 25.5982 25.6369 25.5982 25.1419C25.5982 24.647 25.758 24.2398 26.0774 23.9203C26.3969 23.6008 26.8042 23.441 27.2991 23.441C27.794 23.441 28.2013 23.6008 28.5207 23.9203C28.8402 24.2398 29 24.647 29 25.1419C29 25.6369 28.8402 26.0441 28.5207 26.3636C28.2013 26.6831 27.794 26.8428 27.2991 26.8428C26.8042 26.8428 26.3969 26.6831 26.0774 26.3636Z"
        fill="#46217E" />
</svg>